<?xml version="1.0" standalone="no"?><!DOCTYPE svg PUBLIC "-//W3C//DTD SVG 1.1//EN" "http://www.w3.org/Graphics/SVG/1.1/DTD/svg11.dtd"><svg t="1622715162428" class="icon" viewBox="0 0 1024 1024" version="1.1" xmlns="http://www.w3.org/2000/svg" p-id="5965" width="200" height="200" xmlns:xlink="http://www.w3.org/1999/xlink"><defs><style type="text/css"></style></defs><path d="M512 1017.6C230.4 1017.6 6.4 787.2 6.4 512S230.4 6.4 512 6.4s505.6 230.4 505.6 505.6c0 12.8-6.4 19.2-12.8 25.6-6.4 6.4-19.2 6.4-32 0l-147.2-70.4c-12.8-6.4-19.2-25.6-12.8-44.8 6.4-12.8 25.6-19.2 44.8-12.8l96 51.2c-25.6-224-217.6-390.4-441.6-390.4-243.2 0-441.6 198.4-441.6 441.6s198.4 441.6 441.6 441.6c192 0 364.8-121.6 422.4-307.2 6.4-19.2 25.6-25.6 38.4-19.2 19.2 6.4 25.6 25.6 19.2 38.4-64 211.2-256 352-480 352z" p-id="5966" fill="#a4a4a3"></path></svg>