<?xml version="1.0" standalone="no"?><!DOCTYPE svg PUBLIC "-//W3C//DTD SVG 1.1//EN" "http://www.w3.org/Graphics/SVG/1.1/DTD/svg11.dtd"><svg t="1622693101398" class="icon" viewBox="0 0 1024 1024" version="1.1" xmlns="http://www.w3.org/2000/svg" p-id="2981" xmlns:xlink="http://www.w3.org/1999/xlink" width="200" height="200"><defs><style type="text/css"></style></defs><path d="M340.89073668 581.13625627l148.98574774 148.98574774c1.40446189 1.39452262 3.20390164 2.39277091 5.21552318 2.81367731-1.90833959-0.59678826-1.87376821-0.5734526-1.83228257-0.55573476 0.98830901 0.41269573 2.13348563 0.68148811 3.33268 0.7471737-1.54793305-0.20181037-1.45113322-0.15686759-1.34439412-0.13612476 0.6905631 0.13828549 1.39149762 0.21002107 2.08897498 0.21045321h21.08421379c3.48868329-0.00475357 6.57806729-1.71171492 8.48251759-4.33481755l147.72951059-147.73037489c1.9074753-1.90574672 3.08722327-4.53965293 3.08722327-7.44883362s-1.17931583-5.54308692-3.08635897-7.44883365l-14.89766728-14.90112442c-1.906611-1.90574672-4.53965293-3.08419828-7.44883364-3.08419827s-5.54222263 1.17845155-7.44883363 3.08419827l-115.87977244 115.88322958v-365.94053587c0-0.00043215 0-0.00259286 0-0.00345715 0-5.81749715-4.7159669-10.53346406-10.53346406-10.53346406-0.00129642 0-0.00259286 0-0.00345714 0h-21.07038525c0 0 0 0 0 0-5.81749715 0-10.53346406 4.7159669-10.53346406 10.53346406 0 0.00129642 0 0.00259286 0 0.00345715v366.18556045l-116.12825414-116.12825416c-1.906611-1.90574672-4.53965293-3.08419828-7.44883363-3.08419826s-5.54222263 1.17845155-7.44883365 3.08419826l-14.89766728 14.90112442c-1.90877172 1.90617887-3.08895183 4.5405172-3.08895182 7.4505622 0 2.90831644 1.17888369 5.54135834 3.08549468 7.44710507z" fill="#a4a4a3" p-id="2982"></path></svg>